<svg width="163" height="69" viewBox="0 0 163 69" fill="none" xmlns="http://www.w3.org/2000/svg">
<path d="M4.47181 19.104C4.47181 15.776 5.19181 12.816 6.63181 10.224C8.07181 7.6 10.0718 5.568 12.6318 4.128C15.2238 2.656 18.1518 1.92 21.4158 1.92C25.4158 1.92 28.8398 2.976 31.6878 5.088C34.5358 7.2 36.4398 10.08 37.3998 13.728H28.3758C27.7038 12.32 26.7438 11.248 25.4958 10.512C24.2798 9.776 22.8878 9.408 21.3198 9.408C18.7918 9.408 16.7438 10.288 15.1758 12.048C13.6078 13.808 12.8238 16.16 12.8238 19.104C12.8238 22.048 13.6078 24.4 15.1758 26.16C16.7438 27.92 18.7918 28.8 21.3198 28.8C22.8878 28.8 24.2798 28.432 25.4958 27.696C26.7438 26.96 27.7038 25.888 28.3758 24.48H37.3998C36.4398 28.128 34.5358 31.008 31.6878 33.12C28.8398 35.2 25.4158 36.24 21.4158 36.24C18.1518 36.24 15.2238 35.52 12.6318 34.08C10.0718 32.608 8.07181 30.576 6.63181 27.984C5.19181 25.392 4.47181 22.432 4.47181 19.104ZM70.1703 2.304V36H61.9623V22.128H49.1943V36H40.9863V2.304H49.1943V15.504H61.9623V2.304H70.1703ZM82.8637 8.88V15.696H93.8557V22.032H82.8637V29.424H95.2957V36H74.6557V2.304H95.2957V8.88H82.8637ZM120.16 30.048H107.584L105.568 36H96.9764L109.168 2.304H118.672L130.864 36H122.176L120.16 30.048ZM118.048 23.712L113.872 11.376L109.744 23.712H118.048ZM158.815 13.152C158.815 15.104 158.367 16.896 157.471 18.528C156.575 20.128 155.199 21.424 153.343 22.416C151.487 23.408 149.183 23.904 146.431 23.904H141.343V36H133.135V2.304H146.431C149.119 2.304 151.391 2.768 153.247 3.696C155.103 4.624 156.495 5.904 157.423 7.536C158.351 9.168 158.815 11.04 158.815 13.152ZM145.807 17.376C147.375 17.376 148.543 17.008 149.311 16.272C150.079 15.536 150.463 14.496 150.463 13.152C150.463 11.808 150.079 10.768 149.311 10.032C148.543 9.296 147.375 8.928 145.807 8.928H141.343V17.376H145.807ZM27.8797 47.2C27.1064 45.5733 25.9864 44.32 24.5197 43.44C23.053 42.5333 21.3464 42.08 19.3997 42.08C17.453 42.08 15.693 42.5333 14.1197 43.44C12.573 44.32 11.3464 45.6 10.4397 47.28C9.55969 48.9333 9.11969 50.8533 9.11969 53.04C9.11969 55.2267 9.55969 57.1467 10.4397 58.8C11.3464 60.4533 12.573 61.7333 14.1197 62.64C15.693 63.52 17.453 63.96 19.3997 63.96C22.1197 63.96 24.3597 63.1467 26.1197 61.52C27.8797 59.8933 28.9064 57.6933 29.1997 54.92H18.0797V51.96H33.0797V54.76C32.8664 57.0533 32.1464 59.16 30.9197 61.08C29.693 62.9733 28.0797 64.48 26.0797 65.6C24.0797 66.6933 21.853 67.24 19.3997 67.24C16.813 67.24 14.453 66.64 12.3197 65.44C10.1864 64.2133 8.49302 62.52 7.23969 60.36C6.01302 58.2 5.39969 55.76 5.39969 53.04C5.39969 50.32 6.01302 47.88 7.23969 45.72C8.49302 43.5333 10.1864 41.84 12.3197 40.64C14.453 39.4133 16.813 38.8 19.3997 38.8C22.3597 38.8 24.973 39.5333 27.2397 41C29.533 42.4667 31.1997 44.5333 32.2397 47.2H27.8797ZM53.1725 60.8H41.0125L38.7725 67H34.9325L45.0125 39.28H49.2125L59.2525 67H55.4125L53.1725 60.8ZM52.1325 57.84L47.0925 43.76L42.0525 57.84H52.1325ZM90.7256 39.32V67H87.0856V46.36L77.8856 67H75.3256L66.0856 46.32V67H62.4456V39.32H66.3656L76.6056 62.2L86.8456 39.32H90.7256ZM99.3388 39.12V67H95.6988V39.12H99.3388ZM126.262 67H122.622L107.982 44.8V67H104.342V39.08H107.982L122.622 61.24V39.08H126.262V67ZM152.388 47.2C151.614 45.5733 150.494 44.32 149.028 43.44C147.561 42.5333 145.854 42.08 143.908 42.08C141.961 42.08 140.201 42.5333 138.628 43.44C137.081 44.32 135.854 45.6 134.948 47.28C134.068 48.9333 133.628 50.8533 133.628 53.04C133.628 55.2267 134.068 57.1467 134.948 58.8C135.854 60.4533 137.081 61.7333 138.628 62.64C140.201 63.52 141.961 63.96 143.908 63.96C146.628 63.96 148.868 63.1467 150.628 61.52C152.388 59.8933 153.414 57.6933 153.708 54.92H142.588V51.96H157.588V54.76C157.374 57.0533 156.654 59.16 155.428 61.08C154.201 62.9733 152.588 64.48 150.588 65.6C148.588 66.6933 146.361 67.24 143.908 67.24C141.321 67.24 138.961 66.64 136.828 65.44C134.694 64.2133 133.001 62.52 131.748 60.36C130.521 58.2 129.908 55.76 129.908 53.04C129.908 50.32 130.521 47.88 131.748 45.72C133.001 43.5333 134.694 41.84 136.828 40.64C138.961 39.4133 141.321 38.8 143.908 38.8C146.868 38.8 149.481 39.5333 151.748 41C154.041 42.4667 155.708 44.5333 156.748 47.2H152.388Z" fill="white"/>
</svg>
